<?xml version="1.0" standalone="no"?>
<!DOCTYPE svg PUBLIC "-//W3C//DTD SVG 20010904//EN"
 "http://www.w3.org/TR/2001/REC-SVG-20010904/DTD/svg10.dtd">
<svg version="1.0" xmlns="http://www.w3.org/2000/svg"
 width="798.000000pt" height="798.000000pt" viewBox="0 0 798.000000 798.000000"
 preserveAspectRatio="xMidYMid meet">
<metadata>
Created by potrace 1.14, written by Peter Selinger 2001-2017
</metadata>
<g transform="translate(0.000000,798.000000) scale(0.100000,-0.100000)"
fill="#000000" stroke="none">
<path d="M2965 7924 c-567 -167 -990 -370 -1373 -661 -332 -252 -644 -567
-823 -830 -93 -137 -119 -194 -119 -264 0 -120 61 -214 178 -271 59 -29 76
-33 147 -33 73 0 86 3 124 28 28 19 59 54 89 104 243 393 617 912 775 1075
213 219 943 651 1054 623 13 -3 67 -49 121 -103 236 -235 413 -511 471 -733
78 -305 35 -628 -133 -974 -110 -228 -267 -458 -436 -638 l-83 -88 6 -182 c15
-432 81 -680 252 -942 186 -288 433 -446 616 -395 68 19 69 34 4 99 -77 78
-84 94 -84 174 l1 67 72 38 c39 20 71 43 71 51 0 8 -33 30 -72 50 -72 36 -72
36 -70 74 2 37 5 40 72 75 39 21 70 44 70 52 0 9 -30 30 -72 50 -71 34 -73 36
-73 72 0 36 2 38 73 75 40 21 72 45 72 53 0 9 -30 30 -71 50 -72 34 -72 34
-70 74 1 38 3 41 71 75 38 20 71 41 73 48 2 6 -18 24 -43 39 l-46 27 42 43
c98 99 167 102 266 11 l56 -53 -47 -28 c-26 -15 -46 -33 -44 -39 2 -7 37 -29
77 -50 71 -38 72 -39 69 -75 -3 -34 -7 -39 -73 -72 -39 -20 -70 -42 -70 -50 0
-8 32 -32 70 -52 67 -35 70 -38 71 -75 2 -38 1 -39 -70 -74 -39 -19 -71 -41
-71 -49 0 -8 33 -32 73 -53 70 -37 72 -39 72 -75 0 -36 -3 -38 -73 -73 -39
-19 -72 -42 -72 -50 0 -8 32 -31 71 -51 l71 -38 2 -65 c2 -80 -9 -103 -85
-178 -64 -63 -63 -78 5 -97 183 -51 430 107 616 395 169 260 237 514 252 937
l6 187 -81 86 c-45 47 -121 138 -169 203 -256 340 -399 664 -434 988 -24 229
19 458 126 661 88 167 301 437 432 549 77 65 82 65 216 8 164 -70 379 -193
597 -341 255 -174 326 -243 532 -513 171 -225 384 -536 550 -803 30 -50 61
-85 89 -104 38 -25 51 -28 124 -28 71 0 88 4 147 33 154 76 219 238 153 380
-65 139 -260 387 -463 589 -445 443 -908 738 -1486 948 -166 60 -391 125 -431
125 -77 0 -185 -109 -340 -345 -67 -102 -218 -355 -239 -401 -1 -1 -37 5 -81
13 -108 20 -440 20 -550 0 -44 -8 -80 -14 -81 -13 -21 47 -172 299 -240 404
-159 240 -262 343 -343 341 -20 0 -58 -7 -86 -15z"/>
<path d="M2750 7114 c-282 -76 -490 -348 -556 -728 -19 -109 -14 -333 10 -441
77 -348 284 -602 546 -670 l65 -17 68 72 c261 278 433 576 508 880 20 81 23
120 23 270 0 197 -10 251 -71 379 -44 92 -105 154 -199 203 -124 65 -272 85
-394 52z"/>
<path d="M4966 7115 c-82 -21 -193 -82 -247 -136 -52 -51 -107 -157 -136 -259
-28 -103 -25 -383 6 -510 71 -285 207 -532 447 -810 130 -151 120 -144 194
-125 272 71 489 348 554 710 23 128 15 375 -17 496 -48 181 -129 337 -234 450
-61 66 -175 141 -254 169 -83 29 -230 36 -313 15z"/>
<path d="M1190 5645 c-36 -8 -123 -44 -195 -80 -420 -210 -684 -546 -794
-1008 -91 -383 -66 -886 70 -1415 204 -794 534 -1325 927 -1494 71 -30 85 -32
187 -33 99 0 114 2 154 25 53 30 98 84 107 127 l6 32 -33 -9 c-100 -26 -224
-15 -302 27 -69 38 -103 81 -127 164 l-21 71 78 82 c87 89 123 136 123 160 0
21 -54 34 -175 43 l-99 8 -17 77 -16 77 73 56 c75 58 134 118 134 136 0 15
-55 36 -162 60 l-96 23 -7 65 c-4 35 -9 70 -12 76 -2 7 30 33 76 59 44 26 99
65 123 87 l43 39 -30 25 c-16 13 -74 39 -130 57 -55 18 -103 36 -106 41 -3 5
-7 43 -8 85 l-2 77 68 30 c91 39 179 91 186 110 9 21 -42 56 -157 110 l-98 45
7 73 c3 39 7 72 8 72 1 1 55 18 121 40 65 21 130 48 145 61 l26 22 -38 35
c-20 20 -76 59 -125 88 -48 29 -88 53 -90 54 -3 2 27 147 31 151 1 2 47 10
102 19 105 16 162 31 182 47 21 17 -14 62 -109 145 l-87 75 41 81 c109 218
225 322 309 277 26 -15 24 -35 -16 -138 -44 -113 -54 -169 -32 -178 9 -3 42 2
73 11 58 17 58 17 75 -7 45 -58 44 -69 -10 -154 -28 -43 -51 -90 -51 -103 l0
-24 105 5 104 6 21 -35 c11 -19 20 -39 20 -45 0 -6 -20 -41 -45 -78 -53 -79
-66 -126 -40 -136 9 -4 56 -3 103 2 l85 10 18 -31 c11 -16 19 -36 19 -44 0 -7
-23 -45 -51 -83 -59 -81 -84 -134 -69 -143 6 -4 60 -5 121 -4 l111 3 18 -42
19 -43 -60 -91 c-71 -109 -73 -132 -12 -136 23 -2 71 1 107 6 l65 8 26 -57 25
-58 -38 -59 c-46 -71 -67 -120 -57 -130 4 -4 47 -6 96 -4 50 1 89 -2 89 -7 0
-37 118 -117 223 -151 50 -16 41 -25 -76 -83 -139 -68 -183 -79 -333 -82 -115
-2 -135 -4 -171 -25 -76 -42 -104 -136 -64 -211 43 -80 68 -210 96 -509 22
-231 9 -369 -55 -562 -45 -133 -127 -286 -211 -390 -51 -62 -16 -118 153 -245
54 -41 91 -77 100 -97 9 -21 13 -75 12 -169 -1 -122 -3 -141 -21 -165 -29 -40
-56 -39 -107 3 -43 35 -46 36 -73 21 -37 -19 -80 -98 -98 -179 -13 -59 -12
-267 1 -288 3 -5 243 -9 534 -9 l528 0 -33 33 c-47 47 -66 119 -66 259 -2 232
63 413 173 485 l42 28 280 0 281 0 68 -32 c83 -39 169 -124 210 -204 l28 -56
67 20 c97 29 309 29 405 0 l68 -20 25 54 c38 79 127 166 211 206 l68 32 281 0
280 0 42 -28 c110 -72 174 -251 173 -485 0 -139 -18 -211 -66 -259 l-33 -33
528 0 c291 0 531 3 533 8 12 19 17 197 7 258 -14 91 -62 189 -101 210 -30 15
-31 14 -75 -21 -51 -42 -78 -43 -107 -3 -18 24 -20 43 -21 165 -1 94 3 148 12
169 9 20 46 56 100 97 186 139 207 183 133 271 -124 151 -226 410 -252 641
-21 184 35 650 92 772 43 93 36 156 -23 209 -45 41 -69 47 -198 49 -87 1 -143
7 -185 19 -66 20 -207 86 -244 115 l-24 18 39 13 c106 34 224 114 224 151 0 5
39 8 89 7 49 -2 92 0 96 4 10 10 -11 59 -57 130 l-38 59 25 58 26 58 57 -9
c31 -5 79 -8 107 -6 70 4 70 23 -4 136 l-61 92 20 43 20 42 111 -3 c83 -3 114
-1 120 9 10 16 -11 57 -72 140 -27 37 -49 72 -49 78 0 7 7 26 16 42 l15 31 99
-8 c87 -6 100 -5 106 10 8 21 -11 66 -59 138 -40 60 -41 76 -10 124 13 21 20
22 118 16 l105 -5 0 24 c0 13 -23 60 -51 103 -54 85 -55 96 -11 154 l18 23 66
-18 c37 -10 70 -14 74 -10 12 11 -11 105 -45 192 -37 92 -38 112 -7 126 83 38
199 -67 304 -277 l41 -82 -62 -53 c-91 -80 -113 -101 -131 -130 -19 -30 -12
-40 44 -57 29 -10 209 -42 231 -42 7 0 43 -150 37 -154 -1 -2 -42 -26 -90 -55
-49 -29 -105 -68 -125 -88 l-38 -35 26 -22 c15 -13 80 -40 145 -61 66 -22 120
-39 121 -39 1 -1 4 -33 8 -73 l7 -72 -97 -45 c-124 -58 -169 -91 -156 -114 10
-20 111 -78 194 -112 l57 -24 0 -75 c0 -42 -4 -81 -8 -87 -4 -6 -41 -21 -82
-33 -81 -25 -164 -64 -176 -83 -10 -16 60 -77 155 -132 l77 -45 -9 -80 -10
-79 -61 -12 c-88 -17 -160 -38 -182 -54 -19 -14 -19 -15 2 -43 11 -15 59 -59
106 -97 l85 -68 -14 -72 c-8 -39 -18 -74 -21 -77 -4 -4 -50 -9 -102 -13 -115
-7 -170 -21 -170 -42 0 -24 36 -71 123 -160 l78 -82 -21 -73 c-27 -91 -78
-146 -167 -179 -64 -24 -199 -30 -262 -11 l-33 10 6 -32 c10 -47 55 -98 117
-130 51 -27 60 -28 154 -24 84 3 112 9 177 36 206 87 411 292 578 582 192 333
373 889 439 1354 29 202 34 279 33 475 -1 334 -56 597 -178 846 -70 144 -153
260 -267 374 -120 118 -241 205 -402 285 -167 84 -235 99 -405 91 -375 -17
-768 -216 -1092 -554 -85 -88 -88 -93 -89 -139 -1 -183 -69 -434 -174 -645
-238 -480 -687 -867 -1010 -871 -85 -1 -123 9 -188 51 l-37 25 -40 -28 c-46
-32 -124 -55 -186 -55 -62 0 -185 35 -266 75 -475 239 -876 856 -915 1410 l-6
89 -86 90 c-253 263 -554 445 -863 522 -132 32 -339 41 -438 19z m1215 -3189
c66 -25 162 -59 213 -77 50 -17 92 -34 92 -38 0 -3 -19 -17 -41 -31 -50 -31
-131 -127 -238 -284 l-81 -119 0 94 c0 112 -30 303 -65 414 -13 44 -25 81 -25
83 0 8 38 -3 145 -42z m3288 -33 c-34 -110 -62 -285 -64 -408 -1 -58 -5 -102
-9 -98 -4 4 -39 55 -77 113 -113 168 -215 285 -259 296 -13 4 -24 9 -24 13 0
7 417 159 441 160 15 1 14 -8 -8 -76z"/>
<path d="M3835 431 c-38 -11 -73 -20 -78 -20 -4 -1 -7 -54 -6 -118 0 -151 -13
-213 -56 -258 l-32 -35 330 0 330 0 -27 21 c-50 39 -66 104 -66 265 l-1 121
-57 18 c-89 26 -252 29 -337 6z"/>
</g>
</svg>
